<?xml version="1.0" encoding="utf-8"?>
<!-- Generator: Adobe Illustrator 17.1.0, SVG Export Plug-In . SVG Version: 6.00 Build 0)  -->
<!DOCTYPE svg PUBLIC "-//W3C//DTD SVG 1.1//EN" "http://www.w3.org/Graphics/SVG/1.1/DTD/svg11.dtd">
<svg version="1.1" id="Layer_1" xmlns="http://www.w3.org/2000/svg" xmlns:xlink="http://www.w3.org/1999/xlink" x="0px" y="0px"
	 width="794px" height="123.9px" viewBox="0 0 794 123.9" enable-background="new 0 0 794 123.9" xml:space="preserve">
<g>
	<g>
		<g>
			<g>
				<path fill="#FFFFFF" d="M741.9,62.4c0.4-1.4,0.6-2.9,0.6-4.4c0.1-8.7-3-16.1-8.3-23c-15-19.3-43.8-18.2-56.9,2.5
					c-7.8,12.5-8.7,25.9-3,39.3c4.3,10.2,12.1,16.9,23,19.7c13.2,3.4,25.6,0.8,36.9-6.4c2-1.3,3.8-3,5-5c2.3-3.5,2.4-7.2,0.3-10.9
					c-1.3-2.4-3.2-4.1-6.1-5.3c0.9-0.2,1.3-0.3,1.8-0.4C738.6,67.8,740.8,65.7,741.9,62.4z M696.4,50.4c1.1-4.5,5.5-7.6,10.5-7.4
					c4.5,0.2,8,2.3,9.8,6.6c0.3,0.8,0.4,1.1-0.6,1.1c-6.4-0.1-13-0.1-19.4-0.1C696.6,50.4,696.5,50.4,696.4,50.4z M711.8,75.4
					c-3.8,0.5-7.4,0-10.7-1.8c-2-1.2-3.3-2.7-4.3-4.7c10.2,0,20.3,0,30.4,0C721.9,71.1,717.4,74.6,711.8,75.4z"/>
			</g>
		</g>
		<g>
			<path fill="#FFFFFF" d="M793.3,39.1c-1.1,2.7-3,4.5-5.6,5.6c-3.2,1.4-6.4,2.7-9.7,4.2c-3,1.4-5.4,3.3-5.9,6.9
				c-0.1,1-0.1,2-0.1,3.1c0,8.4,0,16.9,0.1,25.3c0,1.5-0.1,3-0.5,4.4c-1.7,6.1-6.9,9.9-12.9,9.1c-6.2-0.6-10.9-5.5-11.1-11.9
				c-0.2-5.3-0.1-10.5-0.1-15.8c0-3.3,0-6.7,0-10c0,0,0,0-0.1,0c0-8.1,0.1-16.1,0-24.2c-0.2-11.3,10.9-15.7,19.6-11.6
				c1.2,0.5,2.3,1.4,3,2.5c0.4,0.5,0.6,0.6,1.1,0.1c4-4,8.8-4.7,14-3.7C791.7,24.8,795.8,32.7,793.3,39.1z"/>
		</g>
		<g>
			<path fill="#FFFFFF" d="M442.3,79.4c2,3.1,2.5,6.6,1.6,10.1c-0.6,3-2.5,5.4-5.3,6.7c-5.2,2.4-10.1,2.5-14.7-1.2
				c-1.8-1.4-3.4-2.9-4.9-4.5c-8.5-9.1-17.1-18.5-25.7-27.7c-0.3-0.3-0.5-0.8-1.1-0.9c-0.2,0.5-0.1,1-0.1,1.5c0,7.3,0,14.6,0,22
				c0,5.3-2.3,9.1-7.1,11.4c-5.2,2.3-10.1,1.6-14.4-2c-2.8-2.4-3.8-5.6-3.8-9c0-9.7,0-19.4,0-29.2c0-14.2,0.1-28.4,0.1-42.8
				c0-1.8,0-3.7,0.6-5.4c1.8-5.5,7.4-8.7,13.5-8.1c6,0.6,10.4,4.9,10.9,10.9c0.4,6.2,0.1,12.5,0.1,18.8c0,0.5,0,1.1,0,1.8
				c0.8-0.2,1-0.8,1.4-1.1c8.2-8.6,16.3-17.3,24.6-26c4.9-5.3,11.8-5.9,17.3-1.7c4.5,3.5,5.9,9.3,3.3,14.5c-1.4,2.7-3.3,4.9-5.5,7
				c-7,6.9-14,13.8-21,20.6c-0.8,0.8-0.9,1.2-0.1,2c8.5,8.8,17,17.7,25.5,26.6C439.3,75.4,440.9,77.2,442.3,79.4z"/>
		</g>
		<g>
			<g>
				<path fill="#FFFFFF" d="M662.4,41.3c-4.6-11.2-12.7-18.5-25.2-20c-7-0.8-13.5,0.3-19.2,4.8c-0.8,0.5-1,0.2-1.4-0.3
					c-4.7-5.5-13.4-5.5-18.3-0.1c-2.5,2.8-3.3,6-3.3,9.7c0,12.4,0,24.8,0,37.3l0,0c0,10.6,0,21.4,0,32c0,2.4-0.1,4.7,0.1,7.2
					c0.3,6.1,4.7,11,10.3,11.7c6.1,0.9,11.4-2.5,13.3-8.3c0.5-1.6,0.8-3.2,0.8-4.9c0-4.8,0-9.7,0-14.6c0-1.5,0-1.5,1.3-0.9
					c5.3,2.6,10.9,3.3,16.7,2.6c9.9-1.3,17.1-6.7,22.3-14.9C668.1,69.5,668.2,55.4,662.4,41.3z M638.2,70.8
					c-4.1,5.6-11.5,5.6-15.5-0.1c-2.8-4-3.4-8.5-3.1-13.2c0.2-3.1,1-6.1,2.7-8.7c4-5.9,11.9-5.9,16-0.1c2.1,3,3.2,6.9,3.2,11.6
					C641.7,63.7,640.8,67.5,638.2,70.8z"/>
			</g>
		</g>
		<g>
			<g>
				<path fill="#FFFFFF" d="M589,61.7c0.5-1.9,0.5-3.9,0.4-5.8c-0.4-8.4-3.9-15.6-9-22c-14.5-17.4-41.2-16.8-54.6,1.6
					c-9.1,12.8-10.4,26.9-4.4,41.2c4.3,10.2,12,16.9,22.9,19.7c13.3,3.4,25.7,0.8,37.2-6.6c1.9-1.2,3.5-2.8,4.7-4.7
					c2.4-3.7,2.5-7.4,0.3-11.3c-1.3-2.4-3.2-4-6-5c0.8-0.2,1.2-0.2,1.5-0.3C585.8,67.9,588.1,65.5,589,61.7z M543.4,50.2
					c1.2-4.5,5.5-7.6,10.5-7.4c4.6,0.2,8,2.3,9.8,6.7c0.3,0.6,0.3,1-0.5,1c-6.6-0.1-13-0.1-19.6-0.1
					C543.5,50.4,543.5,50.4,543.4,50.2z M571.6,70.1c-2.7,1.2-5.3,2.8-8.1,3.9c-4.8,1.9-9.6,2.1-14.4,0c-2.4-1.1-4.2-2.7-5.4-5.3
					c10.2,0,20.3,0,30.3,0c0,0.1,0.1,0.1,0.1,0.2C573.3,69.5,572.4,69.8,571.6,70.1z"/>
			</g>
		</g>
		<g>
			<g>
				<path fill="#FFFFFF" d="M513.8,62.1c0.4-1.4,0.5-2.8,0.5-4.3c0.1-8.1-2.7-15-7.3-21.6c-15.4-21.4-46.1-19.7-59,3.2
					c-6.2,11.1-7.1,23-2.8,34.9c3.7,10.3,10.6,17.7,21.2,21.4c14.4,4.9,27.9,2.1,40.5-6c1.9-1.2,3.4-2.9,4.5-4.9
					c1.9-3.3,1.9-6.8,0.2-10.2c-1.3-2.6-3.3-4.4-6-5.5c0.4-0.4,1-0.3,1.4-0.4C510.4,67.9,512.8,65.6,513.8,62.1z M478.8,42.8
					c4.4,0.3,7.8,2.3,9.7,6.6c0.2,0.5,0.6,1.1-0.4,1.1c-6.7,0-13.2,0-20,0C469.2,45.7,473.8,42.5,478.8,42.8z M486.9,74.6
					c-4.4,1.5-8.7,1.4-13-0.4c-2.4-1.1-4.2-2.7-5.4-5.2c10.2,0,20.3,0,30.4,0C494.7,70.7,491.2,73.1,486.9,74.6z"/>
			</g>
		</g>
		<g>
			<g>
				<path fill="#FFFFFF" d="M97.7,47.7c0-11.6,0-23.3,0-34.9c0-1.2-0.1-2.3-0.4-3.4c-0.8-3-2.5-5.4-5-7.2c-2.3-1.5-4.9-2.1-7.6-2.1
					c-23,0-45.5,0-68.4,0c-1.7,0-3.4,0.1-5.2,0.2c-1.4,0-2.8,0.4-4,1.1C2.5,3.9,0,7.6,0,12.7c0.1,12.1,0.1,24.4,0.1,36.6l0,0
					c0,11.8,0,23.8,0,35.7c0,0.8,0,1.5,0.1,2.3c1.1,6.2,6.3,10.6,12.6,10.6c18.9,0,38,0,56.9,0c5.2,0,10.3,0,15.4,0
					c2.4,0,4.5-0.5,6.6-1.8c4.1-2.6,6.1-6.3,6.1-11.2C97.8,72.4,97.7,60,97.7,47.7z M78.8,25.2c-0.5,1.9-1.4,3.8-2.5,5.4
					c-1.4,2.1-2.7,4.3-4.1,6.4c-0.3,0.4-0.6,1-1.1,1.3c-0.6,0.5-1.4,0.4-1.8-0.3c-0.2-0.4-0.4-0.9-0.5-1.4c-0.4-1.5-0.9-2.9-1.4-4.4
					c-0.1-0.4-0.3-0.8-0.4-1.2c-0.1,0-0.2,0-0.3,0c-0.2,0.3-0.4,0.6-0.5,1c-1.9,4-3.8,7.8-5.7,11.8c-0.1,0.2-0.2,0.5-0.3,0.8
					c-0.2,0.3-0.1,0.6,0.1,1c0.3,0.3,0.6,0.6,1.1,0.9c1.6,1.1,3.1,2.1,4.7,3.2c2.4,1.5,3.1,5.8,0.9,8.2c-3.1,3.2-6.1,6.6-9.1,9.8
					c-0.8,0.8-1.4,1.5-2.1,2.3c-0.8,0.8-1.3,1.5-1.6,2.5c-0.2,0.6-0.4,1.2-0.8,1.8c-0.6,1.4-0.8,2.9-0.5,4.4
					c0.2,1.2,0.2,2.3,0.3,3.4c0,0.9-0.1,1.6-1,2s-1.6-0.1-2.1-0.8c-1-1.2-1.8-2.5-2.7-3.7c-0.2-0.3-0.3-0.6-0.5-0.9
					c-1-1.4-0.8-2.9-0.1-4.4c0.8-1.8,1.9-3.3,3.3-4.7c1.4-1.3,2.4-2.9,3.2-4.6c1.2-2.1,2.3-4.2,3.4-6.3c0.3-0.6,0.5-1.3,0.5-1.9
					c0-1-0.2-1.2-1.2-1.5c-0.2,0-0.3-0.1-0.5-0.2c-0.1,0.1-0.3,0.2-0.3,0.3c-2.5,2.8-5.2,5.5-7.3,8.5c-0.2,0.3-0.5,0.6-0.8,1.1
					c-0.6,1.1-1.5,1.7-2.6,2.4c-0.6,0.4-1.4,0.8-2,1.3c-1.1,0.9-2,1.7-2.9,2.8c-0.9,1-1.7,1.7-2.7,2.5c-3.5,2.6-5.8,5.9-6.9,10.1
					c-0.3,1.2-0.6,2.1-1.5,3c-0.4,0.4-0.6,1-0.8,1.6c-0.1,0.8-0.3,1.6-0.4,2.4c-0.1,0.3-0.1,0.6-0.2,0.9c-0.3,0.6-0.8,0.9-1.5,0.5
					c-1.1-0.4-1.6-1.2-1.8-2.3c-0.3-2.9-0.8-5.8-1.1-8.7c-0.1-0.5,0-1,0.1-1.5c0.1-0.9,0.8-1.3,1.5-1.5c0.5-0.1,1.1-0.2,1.6-0.2
					c0.6,0,1.2-0.3,1.5-0.9c1.1-1.7,2.1-3.4,3.1-5.3c1-1.7,1.8-3.3,3-4.8c0.8-0.9,1.6-1.6,2.6-2.3c1.1-0.8,2.3-1.5,3.3-2.3
					c0.9-0.5,1.5-1.4,1.8-2.5c1.2-3.9,2.7-7.5,4.5-11.1c0.2-0.4,0.3-0.9,0.2-1.4c-0.2-0.6-0.2-1.3-0.3-1.9c-0.1-1.3,0.1-2.5,0.5-3.8
					c0.5-1.5,1.2-3,1.3-4.6c0-0.3,0.3-0.9,0.6-1.1c1-0.6,1.3-1.6,1.4-2.7c0.1-1.8,0-3.5,0-5.4c0-0.6,0-1.3,0-1.9
					c0.2-1.4-0.5-2-1.8-1.6c-2,0.6-4.1,1.4-6,2.1c-0.5,0.2-1,0.5-1.4,1c-0.8,0.5-1,1.3-1,2.1c0.1,1.9,0.4,3.8,1.1,5.5
					c0.3,1,0.6,1.9,1,2.9c0.2,0.8,0.5,1.5,1.1,2.1c0.9,1.1,0.8,1.8-0.4,2.6c-0.6,0.4-1.4,0.8-2.1,1.1c-0.4,0.2-0.8,0.1-1.1,0
					c-0.9-0.4-1.5-1.1-1.9-1.9c0-0.1-0.1-0.2-0.1-0.3c0-1.2-0.1-2.5,0.1-3.7c0.2-1.5,0.3-2.9-0.8-4.1c-0.5-0.6-0.9-1.5-0.9-2.3
					c-0.1-1.9-0.5-3.8-0.1-5.7c0-0.1,0-0.3,0-0.4c-0.2-1.6,0.8-2.6,1.9-3.4c0.3-0.2,0.6-0.4,1-0.6c3.4-2,7-3.9,10.6-5.6
					c0.4-0.2,0.8-0.3,1.2-0.5c1.1-0.5,2.1-0.8,3.3-0.5c0.8,0.2,1.4,0,2-0.2c0.9-0.3,1.2-1.2,0.9-2c-0.1-0.1-0.1-0.3-0.2-0.4
					c-1-1.1-0.6-2.1-0.1-3.2c0.4-0.9,1-1.7,1.5-2.6c0.3-0.5,0.9-1,1.4-1.3c0.8-0.3,1.4-0.6,2.1-0.9c0.9-0.1,3.1,0.3,4.3,1.4
					c0.5,0.5,1.2,1.1,1.7,1.7c0.6,0.6,0.8,1.4,0.1,2.1c-0.6,0.9-0.8,1.7-0.6,2.7c0.1,1.2-0.4,2-1.4,2.6c-0.4,0.2-0.9,0.5-1.2,0.9
					c-0.6,0.5-0.5,1.2,0,1.8s1.3,0.9,2,1c0.6,0.2,1.3,0.3,1.8,0.5c1.1,0.5,1.7,1.4,1.9,2.6c0.4,1.7,0.9,3.4,1.4,5
					c0.1,0.3,0.3,0.8,0.5,1c0.5,0.4,1.5,0.2,2-0.4c0.2-0.3,0.4-0.9,0.4-1.3c0-0.5,0-1.1-0.1-1.6c-0.3-1,0.1-1.7,0.9-2.3
					c0.6-0.5,1.4-1,2.3-1.4c0.8-0.4,1.7,0.1,2,1C79,23,79,24,78.8,25.2z"/>
			</g>
		</g>
	</g>
	<g>
		<g>
			<g>
				<path fill="#FFFFFF" d="M204.4,76.7c-5.6-5.9-11.2-11.8-16.7-17.8c-0.3-0.3-0.8-0.6-0.9-1.2c0.6-0.2,1.2-0.4,1.7-0.6
					c8.3-3,14.4-8.3,17.3-16.9c1.7-4.9,1.5-10,0.6-15.1c-1.6-10.5-7.1-18-17.2-22.1c-5.6-2.1-11.4-2.9-17.3-2.9
					c-7.2,0-14.3,0-21.6,0c-1.3,0-2.6,0.1-3.8,0.3c-5.8,1.2-9.6,5.8-9.6,11.8c0,9.2,0,18.6,0,27.9c0,15,0,30.1,0,45.1
					c0,6.3,4.5,11.2,10.7,11.9c7,0.8,12.8-3,14.3-9.2c0.3-1.4,0.4-2.8,0.4-4.2c0-5.8,0-11.7,0-17.9c0.5,0.6,0.9,1.1,1.2,1.4
					c7,8.5,14,16.9,21.2,25.5c3.5,4.3,8.7,5.7,13.9,4.2C206,94.7,211.4,84.3,204.4,76.7z M180.7,34.1c-0.6,3.5-3.1,5.6-7.1,5.7
					c-3.3,0.1-6.8,0-10.1,0c-0.8,0-1-0.2-1-1c0-2.4,0-4.6,0-7l0,0c0-2.3,0-4.5,0-6.8c0-0.8,0.1-1.2,1.1-1.2c3.5,0.1,7,0,10.5,0.2
					c4.3,0.2,6.7,2.8,6.8,7.1C180.8,32.2,180.8,33.2,180.7,34.1z"/>
			</g>
		</g>
		<g>
			<path fill="#FFFFFF" d="M353.2,44.2c0.8,4.8,0.4,9.8,0.4,14.7c0,8.3-0.1,16.5-0.1,24.9c0,1.6,0,3.2-0.5,4.8
				c-1.6,5.7-6.3,9-12.2,8.8c-5.6-0.2-10.2-4.1-11.4-9.8c-0.4-1.9-0.4-4-0.4-6c0-9.3,0.1-18.9,0.1-28.4c0-1.4-0.1-2.7-0.4-4.1
				c-1-4.1-4.5-6.6-8.8-6.1c-4.8,0.4-7.7,3.1-7.8,7.8c-0.1,5.8,0,11.6-0.1,17.4c0,5.2,0,10.4,0,15.6c0,1.8-0.3,3.5-0.9,5.3
				c-1.9,5.6-6.9,8.7-12.7,8.2c-5.6-0.5-9.9-4.6-10.7-10.5c-0.2-1.3-0.3-2.5-0.3-3.8c0-7.8,0-15.6,0-23.5l0,0c0-8,0-15.8,0-23.8
				c0-1.7,0.2-3.3,0.6-4.9c3-10,15.9-11.2,20.6-5.2c0.4,0.5,0.8,0.4,1.2,0.1c4.1-2.9,8.7-4.1,13.5-4.3c6-0.2,11.8,0.5,17.2,3.5
				C347.9,29.5,351.9,35.7,353.2,44.2z"/>
		</g>
		<g>
			<path fill="#FFFFFF" d="M279.7,52.2c0,5.9,0.2,11.9,0,17.8c-0.6,13-8.1,22.4-20.7,25.9c-9.3,2.6-18.9,2.5-28-1.2
				c-11-4.3-17.3-13.6-17.4-25.8c-0.2-11.5-0.2-23.1-0.2-34.6c0-6,3.7-11.1,8.8-12.5c8.3-2.3,15.8,3.5,15.9,12.5
				c0,10.6,0,21.3,0,31.9c0,1,0,1.9,0.1,2.8c0.8,4.2,4.3,6.9,8.7,6.8c4.3-0.1,7.6-3,8.1-7.2c0.4-3.8,0.1-7.5,0.1-11.4
				c0.1-7.8,0-15.6,0.1-23.5c0-5.3,3.3-10,8-11.6c8.1-2.8,16,2.6,16.4,11.1c0.1,3.2,0.1,6.3,0.1,9.6
				C279.7,45.9,279.7,49.2,279.7,52.2L279.7,52.2z"/>
		</g>
	</g>
</g>
</svg>
